<mxfile host="app.diagrams.net" modified="2024-04-30T19:10:32.132Z" agent="Mozilla/5.0 (Windows NT 10.0; Win64; x64) AppleWebKit/537.36 (KHTML, like Gecko) Chrome/124.0.0.0 Safari/537.36" etag="QEw5X7YZ02k8EHHGvx_f" version="24.3.1" type="device">
  <diagram name="PÃ¡gina-1" id="lD163Vnd4FFZl28pI0uj">
    <mxGraphModel dx="1434" dy="818" grid="1" gridSize="10" guides="1" tooltips="1" connect="1" arrows="1" fold="1" page="1" pageScale="1" pageWidth="827" pageHeight="1169" math="0" shadow="0">
      <root>
        <mxCell id="0" />
        <mxCell id="1" parent="0" />
        <mxCell id="HJrGSc-7__fv8DipX3A_-1" value="Player" style="rounded=0;whiteSpace=wrap;html=1;" parent="1" vertex="1">
          <mxGeometry x="140" y="400" width="120" height="40" as="geometry" />
        </mxCell>
        <mxCell id="HJrGSc-7__fv8DipX3A_-2" value="name" style="ellipse;whiteSpace=wrap;html=1;fontStyle=0" parent="1" vertex="1">
          <mxGeometry x="160" y="280" width="80" height="40" as="geometry" />
        </mxCell>
        <mxCell id="HJrGSc-7__fv8DipX3A_-3" value="" style="endArrow=none;html=1;rounded=0;exitX=0.5;exitY=1;exitDx=0;exitDy=0;entryX=0.5;entryY=0;entryDx=0;entryDy=0;" parent="1" source="HJrGSc-7__fv8DipX3A_-2" target="HJrGSc-7__fv8DipX3A_-1" edge="1">
          <mxGeometry width="50" height="50" relative="1" as="geometry">
            <mxPoint x="400" y="720" as="sourcePoint" />
            <mxPoint x="450" y="670" as="targetPoint" />
          </mxGeometry>
        </mxCell>
        <mxCell id="HJrGSc-7__fv8DipX3A_-4" value="email" style="ellipse;whiteSpace=wrap;html=1;fontStyle=0" parent="1" vertex="1">
          <mxGeometry x="220" y="320" width="80" height="40" as="geometry" />
        </mxCell>
        <mxCell id="HJrGSc-7__fv8DipX3A_-5" value="id" style="ellipse;whiteSpace=wrap;html=1;fontStyle=4" parent="1" vertex="1">
          <mxGeometry x="100" y="320" width="80" height="40" as="geometry" />
        </mxCell>
        <mxCell id="HJrGSc-7__fv8DipX3A_-6" value="token" style="ellipse;whiteSpace=wrap;html=1;fontStyle=0" parent="1" vertex="1">
          <mxGeometry x="300" y="400" width="80" height="40" as="geometry" />
        </mxCell>
        <mxCell id="HJrGSc-7__fv8DipX3A_-7" value="" style="endArrow=none;html=1;rounded=0;exitX=0.546;exitY=1.017;exitDx=0;exitDy=0;entryX=0.25;entryY=0;entryDx=0;entryDy=0;exitPerimeter=0;" parent="1" source="HJrGSc-7__fv8DipX3A_-5" target="HJrGSc-7__fv8DipX3A_-1" edge="1">
          <mxGeometry width="50" height="50" relative="1" as="geometry">
            <mxPoint x="230" y="670" as="sourcePoint" />
            <mxPoint x="280" y="620" as="targetPoint" />
          </mxGeometry>
        </mxCell>
        <mxCell id="HJrGSc-7__fv8DipX3A_-8" value="" style="endArrow=none;html=1;rounded=0;entryX=0.425;entryY=1.033;entryDx=0;entryDy=0;entryPerimeter=0;exitX=0.75;exitY=0;exitDx=0;exitDy=0;" parent="1" source="HJrGSc-7__fv8DipX3A_-1" target="HJrGSc-7__fv8DipX3A_-4" edge="1">
          <mxGeometry width="50" height="50" relative="1" as="geometry">
            <mxPoint x="400" y="720" as="sourcePoint" />
            <mxPoint x="450" y="670" as="targetPoint" />
          </mxGeometry>
        </mxCell>
        <mxCell id="HJrGSc-7__fv8DipX3A_-9" value="" style="endArrow=none;html=1;rounded=0;entryX=0;entryY=0.5;entryDx=0;entryDy=0;exitX=1;exitY=0.5;exitDx=0;exitDy=0;" parent="1" source="HJrGSc-7__fv8DipX3A_-1" target="HJrGSc-7__fv8DipX3A_-6" edge="1">
          <mxGeometry width="50" height="50" relative="1" as="geometry">
            <mxPoint x="280" y="660" as="sourcePoint" />
            <mxPoint x="330" y="610" as="targetPoint" />
          </mxGeometry>
        </mxCell>
        <mxCell id="HJrGSc-7__fv8DipX3A_-10" value="Game" style="rounded=0;whiteSpace=wrap;html=1;" parent="1" vertex="1">
          <mxGeometry x="500" y="640" width="120" height="40" as="geometry" />
        </mxCell>
        <mxCell id="HJrGSc-7__fv8DipX3A_-11" value="gid" style="ellipse;whiteSpace=wrap;html=1;fontStyle=4" parent="1" vertex="1">
          <mxGeometry x="420" y="720" width="80" height="40" as="geometry" />
        </mxCell>
        <mxCell id="HJrGSc-7__fv8DipX3A_-12" value="name" style="ellipse;whiteSpace=wrap;html=1;fontStyle=0" parent="1" vertex="1">
          <mxGeometry x="460" y="780" width="80" height="40" as="geometry" />
        </mxCell>
        <mxCell id="HJrGSc-7__fv8DipX3A_-13" value="developer" style="ellipse;whiteSpace=wrap;html=1;fontStyle=0" parent="1" vertex="1">
          <mxGeometry x="580" y="780" width="80" height="40" as="geometry" />
        </mxCell>
        <mxCell id="HJrGSc-7__fv8DipX3A_-14" value="genres" style="ellipse;whiteSpace=wrap;html=1;fontStyle=0" parent="1" vertex="1">
          <mxGeometry x="620" y="720" width="80" height="40" as="geometry" />
        </mxCell>
        <mxCell id="HJrGSc-7__fv8DipX3A_-15" value="" style="endArrow=none;html=1;rounded=0;entryX=0;entryY=1;entryDx=0;entryDy=0;exitX=1;exitY=0;exitDx=0;exitDy=0;" parent="1" source="HJrGSc-7__fv8DipX3A_-11" target="HJrGSc-7__fv8DipX3A_-10" edge="1">
          <mxGeometry width="50" height="50" relative="1" as="geometry">
            <mxPoint x="300" y="820" as="sourcePoint" />
            <mxPoint x="350" y="770" as="targetPoint" />
          </mxGeometry>
        </mxCell>
        <mxCell id="HJrGSc-7__fv8DipX3A_-16" value="" style="endArrow=none;html=1;rounded=0;exitX=0.5;exitY=0;exitDx=0;exitDy=0;entryX=0.25;entryY=1;entryDx=0;entryDy=0;" parent="1" source="HJrGSc-7__fv8DipX3A_-12" target="HJrGSc-7__fv8DipX3A_-10" edge="1">
          <mxGeometry width="50" height="50" relative="1" as="geometry">
            <mxPoint x="580" y="780" as="sourcePoint" />
            <mxPoint x="520" y="690" as="targetPoint" />
          </mxGeometry>
        </mxCell>
        <mxCell id="HJrGSc-7__fv8DipX3A_-17" value="" style="endArrow=none;html=1;rounded=0;entryX=0.75;entryY=1;entryDx=0;entryDy=0;exitX=0.5;exitY=0;exitDx=0;exitDy=0;" parent="1" source="HJrGSc-7__fv8DipX3A_-13" target="HJrGSc-7__fv8DipX3A_-10" edge="1">
          <mxGeometry width="50" height="50" relative="1" as="geometry">
            <mxPoint x="490" y="870" as="sourcePoint" />
            <mxPoint x="540" y="820" as="targetPoint" />
          </mxGeometry>
        </mxCell>
        <mxCell id="HJrGSc-7__fv8DipX3A_-18" value="" style="endArrow=none;html=1;rounded=0;entryX=1;entryY=1;entryDx=0;entryDy=0;exitX=0;exitY=0;exitDx=0;exitDy=0;" parent="1" source="HJrGSc-7__fv8DipX3A_-14" target="HJrGSc-7__fv8DipX3A_-10" edge="1">
          <mxGeometry width="50" height="50" relative="1" as="geometry">
            <mxPoint x="490" y="900" as="sourcePoint" />
            <mxPoint x="540" y="850" as="targetPoint" />
          </mxGeometry>
        </mxCell>
        <mxCell id="HJrGSc-7__fv8DipX3A_-22" value="capacity" style="ellipse;whiteSpace=wrap;html=1;fontStyle=0" parent="1" vertex="1">
          <mxGeometry x="100" y="780" width="80" height="40" as="geometry" />
        </mxCell>
        <mxCell id="HJrGSc-7__fv8DipX3A_-23" value="session_date" style="ellipse;whiteSpace=wrap;html=1;fontStyle=0" parent="1" vertex="1">
          <mxGeometry x="220" y="780" width="80" height="40" as="geometry" />
        </mxCell>
        <mxCell id="HJrGSc-7__fv8DipX3A_-25" value="" style="endArrow=none;html=1;rounded=0;entryX=0.25;entryY=1;entryDx=0;entryDy=0;exitX=0.5;exitY=0;exitDx=0;exitDy=0;" parent="1" source="HJrGSc-7__fv8DipX3A_-22" edge="1">
          <mxGeometry width="50" height="50" relative="1" as="geometry">
            <mxPoint x="217" y="797.5" as="sourcePoint" />
            <mxPoint x="170" y="680" as="targetPoint" />
          </mxGeometry>
        </mxCell>
        <mxCell id="HJrGSc-7__fv8DipX3A_-26" value="" style="endArrow=none;html=1;rounded=0;entryX=0.75;entryY=1;entryDx=0;entryDy=0;exitX=0.5;exitY=0;exitDx=0;exitDy=0;" parent="1" source="HJrGSc-7__fv8DipX3A_-23" edge="1">
          <mxGeometry width="50" height="50" relative="1" as="geometry">
            <mxPoint x="217" y="787.5" as="sourcePoint" />
            <mxPoint x="230" y="680" as="targetPoint" />
          </mxGeometry>
        </mxCell>
        <mxCell id="HJrGSc-7__fv8DipX3A_-32" value="" style="endArrow=none;html=1;rounded=0;entryX=0;entryY=0.5;entryDx=0;entryDy=0;exitX=1;exitY=0.5;exitDx=0;exitDy=0;" parent="1" source="4z2w1f68KjVx0mHR2dab-5" target="HJrGSc-7__fv8DipX3A_-10" edge="1">
          <mxGeometry width="50" height="50" relative="1" as="geometry">
            <mxPoint x="410" y="680" as="sourcePoint" />
            <mxPoint x="480" y="670" as="targetPoint" />
          </mxGeometry>
        </mxCell>
        <mxCell id="HJrGSc-7__fv8DipX3A_-35" value="" style="endArrow=none;html=1;rounded=0;entryX=0.5;entryY=1;entryDx=0;entryDy=0;exitX=0.5;exitY=0;exitDx=0;exitDy=0;" parent="1" source="4z2w1f68KjVx0mHR2dab-4" target="HJrGSc-7__fv8DipX3A_-1" edge="1">
          <mxGeometry width="50" height="50" relative="1" as="geometry">
            <mxPoint x="190" y="505" as="sourcePoint" />
            <mxPoint x="220" y="405" as="targetPoint" />
          </mxGeometry>
        </mxCell>
        <mxCell id="HJrGSc-7__fv8DipX3A_-37" value="N" style="text;html=1;align=center;verticalAlign=middle;whiteSpace=wrap;rounded=0;" parent="1" vertex="1">
          <mxGeometry x="210" y="570" width="30" height="30" as="geometry" />
        </mxCell>
        <mxCell id="HJrGSc-7__fv8DipX3A_-39" value="N" style="text;html=1;align=center;verticalAlign=middle;whiteSpace=wrap;rounded=0;" parent="1" vertex="1">
          <mxGeometry x="210" y="480" width="30" height="30" as="geometry" />
        </mxCell>
        <mxCell id="HJrGSc-7__fv8DipX3A_-40" value="N" style="text;html=1;align=center;verticalAlign=middle;whiteSpace=wrap;rounded=0;" parent="1" vertex="1">
          <mxGeometry x="320" y="630" width="30" height="30" as="geometry" />
        </mxCell>
        <mxCell id="HJrGSc-7__fv8DipX3A_-41" value="1" style="text;html=1;align=center;verticalAlign=middle;whiteSpace=wrap;rounded=0;" parent="1" vertex="1">
          <mxGeometry x="407" y="630" width="30" height="30" as="geometry" />
        </mxCell>
        <mxCell id="R3QhaNTgJ3RTfWgvDygv-3" value="password" style="ellipse;whiteSpace=wrap;html=1;fontStyle=0" parent="1" vertex="1">
          <mxGeometry x="20" y="400" width="80" height="40" as="geometry" />
        </mxCell>
        <mxCell id="R3QhaNTgJ3RTfWgvDygv-4" value="" style="endArrow=none;html=1;rounded=0;entryX=0;entryY=0.5;entryDx=0;entryDy=0;exitX=1;exitY=0.5;exitDx=0;exitDy=0;" parent="1" source="R3QhaNTgJ3RTfWgvDygv-3" target="HJrGSc-7__fv8DipX3A_-1" edge="1">
          <mxGeometry width="50" height="50" relative="1" as="geometry">
            <mxPoint x="80" y="590" as="sourcePoint" />
            <mxPoint x="130" y="540" as="targetPoint" />
          </mxGeometry>
        </mxCell>
        <mxCell id="U0-rCjGXiwN4bi-g_Ya--1" value="closed" style="ellipse;whiteSpace=wrap;html=1;fontStyle=0" parent="1" vertex="1">
          <mxGeometry x="260" y="720" width="80" height="40" as="geometry" />
        </mxCell>
        <mxCell id="4z2w1f68KjVx0mHR2dab-3" value="" style="shape=link;html=1;rounded=0;entryX=0.5;entryY=1;entryDx=0;entryDy=0;exitX=0.5;exitY=0;exitDx=0;exitDy=0;" parent="1" target="4z2w1f68KjVx0mHR2dab-4" edge="1">
          <mxGeometry width="100" relative="1" as="geometry">
            <mxPoint x="200" y="640" as="sourcePoint" />
            <mxPoint x="190" y="565" as="targetPoint" />
          </mxGeometry>
        </mxCell>
        <mxCell id="4z2w1f68KjVx0mHR2dab-4" value="joins" style="rhombus;whiteSpace=wrap;html=1;" parent="1" vertex="1">
          <mxGeometry x="160" y="500" width="80" height="80" as="geometry" />
        </mxCell>
        <mxCell id="4z2w1f68KjVx0mHR2dab-5" value="" style="rhombus;whiteSpace=wrap;html=1;" parent="1" vertex="1">
          <mxGeometry x="340" y="620" width="80" height="80" as="geometry" />
        </mxCell>
        <mxCell id="4z2w1f68KjVx0mHR2dab-6" value="" style="shape=link;html=1;rounded=0;entryX=0;entryY=0.5;entryDx=0;entryDy=0;exitX=1;exitY=0.5;exitDx=0;exitDy=0;" parent="1" target="4z2w1f68KjVx0mHR2dab-5" edge="1">
          <mxGeometry width="100" relative="1" as="geometry">
            <mxPoint x="260" y="660" as="sourcePoint" />
            <mxPoint x="347" y="677.5" as="targetPoint" />
          </mxGeometry>
        </mxCell>
        <mxCell id="4z2w1f68KjVx0mHR2dab-9" value="" style="endArrow=none;html=1;rounded=0;entryX=0;entryY=1;entryDx=0;entryDy=0;exitX=1;exitY=0;exitDx=0;exitDy=0;" parent="1" source="4z2w1f68KjVx0mHR2dab-11" edge="1">
          <mxGeometry width="50" height="50" relative="1" as="geometry">
            <mxPoint x="90" y="670" as="sourcePoint" />
            <mxPoint x="140" y="680" as="targetPoint" />
          </mxGeometry>
        </mxCell>
        <mxCell id="4z2w1f68KjVx0mHR2dab-10" value="" style="endArrow=none;html=1;rounded=0;entryX=1;entryY=1;entryDx=0;entryDy=0;exitX=0;exitY=0;exitDx=0;exitDy=0;" parent="1" source="U0-rCjGXiwN4bi-g_Ya--1" edge="1">
          <mxGeometry width="50" height="50" relative="1" as="geometry">
            <mxPoint x="105.53345726059285" y="771.9876736408344" as="sourcePoint" />
            <mxPoint x="260" y="680" as="targetPoint" />
          </mxGeometry>
        </mxCell>
        <mxCell id="4z2w1f68KjVx0mHR2dab-11" value="_s&lt;u&gt;i&lt;/u&gt;d_" style="ellipse;whiteSpace=wrap;html=1;fontStyle=0" parent="1" vertex="1">
          <mxGeometry x="60" y="720" width="80" height="40" as="geometry" />
        </mxCell>
        <mxCell id="4z2w1f68KjVx0mHR2dab-13" value="R1 - Unique;&lt;br&gt;R2 - Email format (abcd@aaa);&lt;br&gt;R3 - Not null;&lt;br&gt;R4 - Date format (YYYY-MM-DD HH:MM:SS);&lt;br&gt;R5 - Value greater than 1 (&amp;gt; 1)." style="text;html=1;strokeColor=none;fillColor=none;align=left;verticalAlign=middle;whiteSpace=wrap;rounded=0;" parent="1" vertex="1">
          <mxGeometry x="80" y="920" width="280" height="80" as="geometry" />
        </mxCell>
        <mxCell id="4z2w1f68KjVx0mHR2dab-15" value="R1, R3" style="text;html=1;align=center;verticalAlign=middle;whiteSpace=wrap;rounded=0;" parent="1" vertex="1">
          <mxGeometry x="160" y="250" width="80" height="30" as="geometry" />
        </mxCell>
        <mxCell id="4z2w1f68KjVx0mHR2dab-16" value="R1, R2, R3" style="text;html=1;align=center;verticalAlign=middle;whiteSpace=wrap;rounded=0;" parent="1" vertex="1">
          <mxGeometry x="280" y="290" width="80" height="30" as="geometry" />
        </mxCell>
        <mxCell id="4z2w1f68KjVx0mHR2dab-19" value="R1, R3" style="text;html=1;align=center;verticalAlign=middle;whiteSpace=wrap;rounded=0;" parent="1" vertex="1">
          <mxGeometry x="320" y="370" width="80" height="30" as="geometry" />
        </mxCell>
        <mxCell id="4z2w1f68KjVx0mHR2dab-20" value="R3" style="text;html=1;align=center;verticalAlign=middle;whiteSpace=wrap;rounded=0;" parent="1" vertex="1">
          <mxGeometry x="40" y="370" width="40" height="30" as="geometry" />
        </mxCell>
        <mxCell id="4z2w1f68KjVx0mHR2dab-22" value="R1, R3" style="text;html=1;align=center;verticalAlign=middle;whiteSpace=wrap;rounded=0;" parent="1" vertex="1">
          <mxGeometry x="460" y="820" width="80" height="30" as="geometry" />
        </mxCell>
        <mxCell id="4z2w1f68KjVx0mHR2dab-25" value="R3" style="text;html=1;align=center;verticalAlign=middle;whiteSpace=wrap;rounded=0;" parent="1" vertex="1">
          <mxGeometry x="600" y="820" width="40" height="30" as="geometry" />
        </mxCell>
        <mxCell id="4z2w1f68KjVx0mHR2dab-26" value="R3" style="text;html=1;align=center;verticalAlign=middle;whiteSpace=wrap;rounded=0;" parent="1" vertex="1">
          <mxGeometry x="640" y="692.5" width="40" height="30" as="geometry" />
        </mxCell>
        <mxCell id="4z2w1f68KjVx0mHR2dab-28" value="R3, R4" style="text;html=1;align=center;verticalAlign=middle;whiteSpace=wrap;rounded=0;" parent="1" vertex="1">
          <mxGeometry x="220" y="820" width="80" height="30" as="geometry" />
        </mxCell>
        <mxCell id="4z2w1f68KjVx0mHR2dab-29" value="R3" style="text;html=1;align=center;verticalAlign=middle;whiteSpace=wrap;rounded=0;" parent="1" vertex="1">
          <mxGeometry x="280" y="692.5" width="40" height="30" as="geometry" />
        </mxCell>
        <mxCell id="4z2w1f68KjVx0mHR2dab-30" value="R3, R5" style="text;html=1;align=center;verticalAlign=middle;whiteSpace=wrap;rounded=0;" parent="1" vertex="1">
          <mxGeometry x="100" y="820" width="80" height="30" as="geometry" />
        </mxCell>
        <mxCell id="DD9Gcvdex8uCatBcKMwn-2" value="Session" style="rounded=0;whiteSpace=wrap;html=1;" vertex="1" parent="1">
          <mxGeometry x="140" y="620" width="120" height="60" as="geometry" />
        </mxCell>
      </root>
    </mxGraphModel>
  </diagram>
</mxfile>
